<svg width="33" height="33" viewBox="0 0 33 33" fill="none" xmlns="http://www.w3.org/2000/svg">
<g clip-path="url(#clip0_7442_71019)">
<path d="M20.1145 7.00594C21.9445 8.83028 21.9445 11.7881 20.1145 13.6124C18.2846 15.4367 15.3176 15.4367 13.4876 13.6124C11.6576 11.7881 11.6576 8.83028 13.4876 7.00594C15.3176 5.18161 18.2846 5.18161 20.1145 7.00594" stroke="#4C4E5B" stroke-width="2" stroke-linecap="round" stroke-linejoin="round"/>
<path d="M6.09033 25.6583V26.9931C6.09033 27.7298 6.69013 28.3278 7.42917 28.3278H26.173C26.912 28.3278 27.5118 27.7298 27.5118 26.9931V25.6583C27.5118 21.6195 22.2207 18.9955 16.8011 18.9955C11.3814 18.9955 6.09033 21.6195 6.09033 25.6583Z" stroke="#4C4E5B" stroke-width="2" stroke-linecap="round" stroke-linejoin="round"/>
</g>
<defs>
<clipPath id="clip0_7442_71019">
<rect width="32.1322" height="32.033" fill="white" transform="translate(0.734985 0.966187)"/>
</clipPath>
</defs>
</svg>
